<?xml version="1.0" encoding="utf-8"?>
<!-- Generator: Adobe Illustrator 24.3.0, SVG Export Plug-In . SVG Version: 6.00 Build 0)  -->
<svg version="1.1" id="Capa_1" xmlns="http://www.w3.org/2000/svg" xmlns:xlink="http://www.w3.org/1999/xlink" x="0px" y="0px"
	 viewBox="0 0 585.9 585.9" style="enable-background:new 0 0 585.9 585.9;" xml:space="preserve">
<style type="text/css">
	.st0{fill:#601AAA;}
	.st1{fill:#FFFFFF;stroke:#FFFFFF;stroke-width:5;stroke-miterlimit:10;}
</style>
<g>
	<path class="st0" d="M357.4,535.3c0.8,0,1.5,0.1,2.3,0.1h177.4c20.8,0,37.6-16.9,37.6-37.6V86.6c0-20.7-16.9-37.6-37.6-37.6H359.7
		c-0.8,0-1.6,0.1-2.3,0.1V0L11.2,46.2v492.3l346.2,47.4V535.3z M357.4,272.6v-17.7h2.6v-8.1l11-9.9L357.4,272.6z M379.8,235.9h4.8
		v-2.7h12.1v2.2l-39.3,103.3v-44.1L379.8,235.9z M553.2,352.6h-1.1l0.2-53.3h1V352.6z M359.7,70.5h177.4c8.9,0,16.1,7.2,16.1,16.1
		v199.9h-11.4v2.7h-54.1v-2.7h-13v12.8h2.2v12.3h-2.2v13h13v-2.3h19.1c-5.5,5.4-11.9,8.8-19.4,10.2v-1.8h-12.8v2
		c-8.3-1.1-15.5-4.6-21.7-10.6c-6.2-6-9.8-12.9-11.2-21.1h1.6v-13h-1.8c1.2-8.3,4.9-15.4,11.2-21.6c6.3-6.2,13.5-9.8,21.9-10.9v2
		h12.8v-1.7c5.8,1,11.2,3.4,16,7.1v6.7h13v-2.3l18,0.1v2.2h13v-12.8h-5.7c-6-9.8-13.9-17.9-23.6-24c-9.4-5.9-19.7-9.4-30.8-10.4
		v-3.1h-12.8v3c-17.5,1.3-32.7,8.2-45.3,20.7c-12.6,12.5-19.6,27.7-21,45h-3v13h3.1c1.6,17.3,8.8,32.3,21.4,44.6
		c12.6,12.3,27.7,19.2,44.9,20.5v2.7h12.8v-2.8c10.8-1.1,20.8-4.5,30-10.2v9.7h12.8v-2.5h11.6v2.5h11.4v132.4
		c0,8.9-7.2,16.1-16.1,16.1H359.7c-0.8,0-1.6-0.1-2.3-0.2V365.2h2.3v-9.6l-0.1-0.6l45.5-119.2h4.4v-12.8h-12.8v2.1h-12.1v-0.5
		l20.7-18.6h8.4v-12.3h-12.3v9.4l-22,19.8h-7.5v6.8l-14.2,12.8h-0.2V70.7C358.2,70.6,358.9,70.5,359.7,70.5z M517.4,340.1v6.2
		c-9.1,6.5-19.2,10.4-30,11.6v-2h-12.8v2.1c-15.2-1.2-28.4-7.3-39.4-18.2c-11-10.8-17.3-23.9-18.9-38.9h1.7v-13h-1.8
		c1.3-15.1,7.6-28.4,18.7-39.4c11.1-11,24.4-17.2,39.7-18.6v2.1h12.8v-1.9c9.3,1,18,4,26.1,8.9c8.3,5.1,15.2,11.9,20.5,20.1h-17.5
		v-2.7h-8.2c-6.1-4.7-13.1-7.7-20.9-8.9v-3.2h-12.8v2.9c-10.6,1.2-19.8,5.7-27.5,13.3c-7.6,7.6-12.2,16.8-13.5,27.3h-3.2v13h3.2
		c1.4,10.4,6,19.4,13.7,26.8c7.7,7.4,16.8,11.7,27.2,12.9v2.8h12.8v-3c11.3-1.6,20.9-6.9,28.4-15.8h6.5v-13h-12.8v2.9h-21.8v-2.9
		h-2.9v-12.3h2.9v-2.1h54v2.1h2.5c0,4.4-0.1,13.2-0.2,26.6v26.8h-2.3v2.3h-11.6v-14.9L517.4,340.1L517.4,340.1z M65.3,349.2
		c-11.5-0.3-22.8-3.8-28.4-7.4l4.5-20.2c6.1,3.5,15.4,7,25.2,7.2c10.6,0.2,16.2-4.5,16.2-11.7c0-6.9-4.9-10.9-17.1-15.7
		C49,295,38.3,285,38.3,269.3c0-18.5,14.2-33,38.1-33.7c11.6-0.3,20.3,2.1,26.5,4.9L97.5,261c-4.2-2.1-11.6-5.1-21.6-4.9
		c-10,0.2-14.8,5.1-14.8,10.8c0,7,5.7,10,18.9,15.4c18.3,7.2,27,17.5,27,33.3C107,334.3,93.5,349.9,65.3,349.2z M178.1,350.5
		l-29.3-0.8l-34.5-113.3l26.6-0.7l13.3,48.1c3.8,13.6,7.2,26.7,9.8,41.1l0.5,0c2.8-13.8,6.3-27.5,10.1-40.6l14.4-49.7l27.6-0.7
		L178.1,350.5z M330.2,348.7c-8.9,2.7-25.6,6.3-42,5.9c-22.4-0.6-38.3-6.5-49.2-17.4c-10.9-10.4-16.8-25.9-16.6-43.2
		c0.2-39.2,28.8-62.4,68.8-63.4c16.1-0.4,28.7,2.4,34.9,5.1l-6,22.4c-6.9-2.8-15.5-5-29.2-4.8c-23.1,0.4-40.3,13.4-40.3,39.3
		c0,24.6,15.6,39.4,38.3,39.8c6.5,0.1,11.6-0.5,13.9-1.6v-25.5l-19.2-0.1v-21.4l46.8-0.2L330.2,348.7L330.2,348.7z"/>
</g>
<g>
	<path class="st1" d="M232.4,389l22.6-10.7l-0.1,3.3l-19.1,8.8l0,0.1l18.5,10l-0.1,3.3l-21.9-12.2L232.4,389z"/>
	<path class="st1" d="M277.6,406.5l14.5-34.3l3.3,0.1l-14.6,34.3L277.6,406.5z"/>
	<path class="st1" d="M330.1,394.9l-22.6,10.7l0.1-3.3l19.2-8.8l0-0.1l-18.6-10l0.1-3.3l21.9,12.1L330.1,394.9z"/>
</g>
</svg>
