<svg aria-hidden="true" style="position:absolute;width:0;height:0;display:none;" xmlns="http://www.w3.org/2000/svg" overflow="hidden">
	<defs>
    <symbol id="icon-instagram" viewBox="0 0 23 23" preserveAspectRatio="xMinYMid">
      <path fill-rule="evenodd" d="M19.834 20.598H3.49a.681.681 0 0 1-.68-.681V9.7h2.723c-.355.511-.475 1.464-.475 2.069 0 3.647 2.974 6.615 6.629 6.615 3.655 0 6.629-2.968 6.629-6.615 0-.605-.086-1.544-.526-2.069h2.724v10.217a.681.681 0 0 1-.681.68m-8.146-13.01a4.186 4.186 0 0 1 4.19 4.182 4.186 4.186 0 0 1-4.19 4.182 4.186 4.186 0 0 1-4.19-4.182 4.186 4.186 0 0 1 4.19-4.181M17.11 3.57h2.043c.376 0 .68.305.68.68v2.044a.681.681 0 0 1-.68.681H17.11a.681.681 0 0 1-.681-.681V4.252c0-.376.305-.681.681-.681M19.967.846H3.357a2.587 2.587 0 0 0-2.59 2.585v16.625a2.587 2.587 0 0 0 2.59 2.585h16.61c1.43 0 2.59-1.157 2.59-2.585V3.431a2.587 2.587 0 0 0-2.59-2.585"/>
    </symbol>

    <symbol id="icon-linkedin" viewBox="0 0 200 200" preserveAspectRatio="xMinYMid">
      <g fill-rule="evenodd">
          <path d="M62.035 50c6.638 0 12.019 5.392 12.019 12.023 0 6.639-5.38 12.027-12.02 12.027C55.373 74.05 50 68.662 50 62.023 50 55.392 55.372 50 62.035 50zm-10.388 99.912V83.178H72.41v66.734H51.647zm33.777-66.734h19.881v9.118h.288c2.766-5.248 9.533-10.78 19.62-10.78 20.99 0 24.87 13.817 24.87 31.792v36.604h-20.72V117.46c0-7.738-.152-17.694-10.78-17.694-10.795 0-12.443 8.426-12.443 17.135v33.011H85.424V83.178z" class="icon"></path>
      </g>
    </symbol>

    <symbol id="icon-facebook" viewBox="0 0 200 200" preserveAspectRatio="xMinYMid">
        <path class="icon" d="M105,142v-40.1h13.5l2-15.6H105v-10c0-4.5,1.3-7.6,7.8-7.6l8.3,0v-14c-1.4-0.2-6.4-0.6-12.1-0.6
      C97,54,88.9,61.3,88.9,74.7v11.5H75.3v15.6h13.5V142H105z"></path>
    </symbol>

    <symbol id="icon-twitter" viewBox="0 0 200 200" preserveAspectRatio="xMinYMid">
      <path class="icon" d="M136,77.7c-2.6,1.2-5.5,2-8.5,2.3c3-1.8,5.4-4.7,6.5-8.2c-2.9,1.7-6,2.9-9.4,3.6c-2.7-2.9-6.5-4.7-10.8-4.7
c-8.2,0-14.8,6.6-14.8,14.8c0,1.2,0.1,2.3,0.4,3.4C87.2,88.3,76.3,82.4,69,73.4c-1.3,2.2-2,4.7-2,7.4c0,5.1,2.6,9.6,6.6,12.3
c-2.4-0.1-4.7-0.7-6.7-1.8c0,0.1,0,0.1,0,0.2c0,7.2,5.1,13.1,11.8,14.5c-1.2,0.3-2.5,0.5-3.9,0.5c-1,0-1.9-0.1-2.8-0.3
c1.9,5.9,7.3,10.1,13.8,10.3c-5.1,4-11.4,6.3-18.3,6.3c-1.2,0-2.4-0.1-3.5-0.2c6.5,4.2,14.3,6.6,22.6,6.6c27.2,0,42-22.5,42-42
c0-0.6,0-1.3,0-1.9C131.5,83.2,134,80.6,136,77.7z"></path>
    </symbol>

    <symbol id="icon-email" viewBox="0 0 36 24" preserveAspectRatio="xMinYMid">
      <g fill-rule="evenodd">
        <path d="M18.078 12.18L33.476.003c-.01 0-.024-.004-.036-.004H2.717c-.012 0-.026.004-.036.004l15.397 12.175z"/>
        <path d="M19.144 15.657a1.717 1.717 0 0 1-2.132 0L.176 2.343c-.005.064-.02.123-.02.187v18.558c0 1.397 1.146 2.53 2.56 2.53h30.723c1.415 0 2.56-1.133 2.56-2.53V2.53c0-.064-.014-.123-.019-.187L19.144 15.657z"/>
    </g>
    </symbol>

    <symbol id="carousel-next-arrow" xmlns="http://www.w3.org/2000/svg"  viewBox="0 0 16 16" preserveAspectRatio="xMinYMid">
      <path d="M12.4,9l-6.6,6.6c-0.3,0.3-0.6,0.4-1,0.4s-0.7-0.1-1-0.4c-0.6-0.6-0.6-1.4,0-2L9.4,8L3.8,2.4c-0.6-0.6-0.6-1.4,0-2
	s1.4-0.6,2,0L12.4,7C12.9,7.6,12.9,8.4,12.4,9z"/>
    </symbol>

    <symbol id="carousel-prev-arrow" xmlns="http://www.w3.org/2000/svg"  viewBox="0 0 16 16" preserveAspectRatio="xMinYMid">
      <path d="M3.7,6.9l6.6-6.6c0.3-0.3,0.6-0.4,1-0.4c0.4,0,0.7,0.1,1,0.4c0.6,0.6,0.6,1.4,0,2L6.7,7.9l5.6,5.6c0.6,0.6,0.6,1.4,0,2
	c-0.6,0.6-1.4,0.6-2,0L3.7,8.9C3.2,8.3,3.2,7.5,3.7,6.9z"/>
    </symbol>

    <symbol id="icon-arrow" xmlns="http://www.w3.org/2000/svg"  viewBox="0 0 16 16" preserveAspectRatio="xMinYMid">
      <path d="m7 12.3-6.6-6.6c-.3-.3-.4-.6-.4-1s.1-.7.4-1c.6-.6 1.4-.6 2 0l5.6 5.6 5.6-5.6c.6-.6 1.4-.6 2 0s.6 1.4 0 2l-6.6 6.6c-.6.5-1.4.5-2 0z"/>
    </symbol>

    <symbol id="icon-download" xmlns="http://www.w3.org/2000/svg"  viewBox="0 0 128 128" preserveAspectRatio="xMinYMid">
      <path d="M85.9998,88.0001 C85.9998,89.1041 85.1038,90.0001 83.9998,90.0001 L43.9998,90.0001 C42.8958,90.0001 41.9998,89.1041 41.9998,88.0001 C41.9998,86.8961 42.8958,86.0001 43.9998,86.0001 L83.9998,86.0001 C85.1038,86.0001 85.9998,86.8961 85.9998,88.0001 L85.9998,88.0001 Z M85.9998,76.0001 C85.9998,77.1041 85.1038,78.0001 83.9998,78.0001 L43.9998,78.0001 C42.8958,78.0001 41.9998,77.1041 41.9998,76.0001 C41.9998,74.8961 42.8958,74.0001 43.9998,74.0001 L83.9998,74.0001 C85.1038,74.0001 85.9998,74.8961 85.9998,76.0001 L85.9998,76.0001 Z M43.9998,62.0001 L83.9998,62.0001 C85.1038,62.0001 85.9998,62.8961 85.9998,64.0001 C85.9998,65.1041 85.1038,66.0001 83.9998,66.0001 L43.9998,66.0001 C42.8958,66.0001 41.9998,65.1041 41.9998,64.0001 C41.9998,62.8961 42.8958,62.0001 43.9998,62.0001 L43.9998,62.0001 Z M99.9998,108.0451 C99.9998,110.2261 98.2058,112.0001 95.9998,112.0001 L31.9998,112.0001 C29.7938,112.0001 27.9998,110.2261 27.9998,108.0451 L27.9998,20.0451 C27.9998,17.8141 29.7938,16.0001 31.9998,16.0001 L71.9998,16.0001 L71.9998,40.0001 C71.9998,42.2091 73.7908,44.0001 75.9998,44.0001 L99.9998,44.0001 L99.9998,108.0451 Z M79.9998,21.6571 L94.3438,36.0001 L79.9998,36.0001 L79.9998,21.6571 Z M107.9208,39.2161 C107.8968,39.0991 107.8538,38.9901 107.8198,38.8761 C107.7798,38.7401 107.7488,38.6021 107.6938,38.4701 C107.6388,38.3361 107.5618,38.2141 107.4928,38.0881 C107.4368,37.9861 107.3928,37.8801 107.3268,37.7821 C107.1808,37.5621 107.0148,37.3571 106.8278,37.1711 L78.8278,9.1711 C78.8258,9.1691 78.8238,9.1681 78.8228,9.1671 C78.6388,8.9831 78.4368,8.8191 78.2198,8.6741 C78.1178,8.6061 78.0088,8.5601 77.9028,8.5021 C77.7798,8.4351 77.6608,8.3601 77.5298,8.3061 C77.3988,8.2521 77.2638,8.2211 77.1288,8.1811 C77.0138,8.1471 76.9018,8.1031 76.7828,8.0791 C76.5398,8.0311 76.2948,8.0081 76.0478,8.0051 C76.0318,8.0041 76.0168,8.0001 75.9998,8.0001 L31.9998,8.0001 C25.3828,8.0001 19.9998,13.4031 19.9998,20.0451 L19.9998,108.0451 C19.9998,114.6371 25.3828,120.0001 31.9998,120.0001 L95.9998,120.0001 C102.6168,120.0001 107.9998,114.6371 107.9998,108.0451 L107.9998,40.0001 C107.9998,39.7371 107.9728,39.4751 107.9208,39.2161 L107.9208,39.2161 Z" />
    </symbol>

    <symbol id="icon-search" viewBox="0 0 489.713 489.713" preserveAspectRatio="xMinYMid">
      <path d="M483.4,454.444l-121.3-121.4c28.7-35.2,46-80,46-128.9c0-112.5-91.5-204.1-204.1-204.1S0,91.644,0,204.144
		s91.5,204,204.1,204c48.8,0,93.7-17.3,128.9-46l121.3,121.3c8.3,8.3,20.9,8.3,29.2,0S491.8,462.744,483.4,454.444z M40.7,204.144
		c0-90.1,73.2-163.3,163.3-163.3s163.4,73.3,163.4,163.4s-73.3,163.4-163.4,163.4S40.7,294.244,40.7,204.144z"/>
    </symbol>
	</defs>
</svg>
